<svg width="84" height="15" viewBox="0 0 84 15" fill="none" xmlns="http://www.w3.org/2000/svg">
<g clip-path="url(#clip0_283_319)">
<path d="M66.7498 0.416016H63.5571V14.7151H66.7498V0.416016Z" fill="#111214"/>
<path d="M54.3004 0.436085L51.2232 0.432531V0.429688H49.9471V0.432531H48.363L48.3616 14.7139H54.1282L54.3375 14.7089V14.7032C58.0713 14.5447 60.9455 11.3886 60.9455 7.57143C60.9455 3.73222 58.0559 0.573987 54.3004 0.435374V0.436085ZM56.7231 10.36C55.9881 11.1057 55.0788 11.5166 54.0428 11.5166H51.3534V3.6263H54.0428C55.0788 3.6263 55.9888 4.03788 56.7231 4.78354C57.4574 5.52991 57.862 6.5201 57.862 7.57214C57.862 8.62417 57.4574 9.61436 56.7224 10.3607L56.7231 10.36Z" fill="#111214"/>
<path d="M76.6676 14.927C80.7115 14.927 84.0008 11.5854 84.0001 7.47891C84.0001 3.37243 80.7094 0.0322266 76.6655 0.0322266C72.6216 0.0322266 69.3323 3.37385 69.3323 7.48034C69.3323 11.5868 72.623 14.927 76.6669 14.927H76.6676ZM76.6676 11.6508C74.4031 11.6508 72.56 9.78059 72.56 7.48034C72.56 5.18079 74.4017 3.30988 76.6669 3.30917C78.9314 3.30917 80.7738 5.17937 80.7745 7.47962C80.7745 9.77917 78.9328 11.6501 76.6683 11.6508H76.6676Z" fill="#111214"/>
<path d="M30.5262 14.7146L24.9871 0.429688H24.7806H21.499H21.2918L15.7534 14.7146H19.2422L23.1398 4.28169L27.0374 14.7146H30.5262Z" fill="#111214"/>
<path d="M42.4123 0.430664L42.4137 8.02236H42.4088C42.3563 10.0852 40.9535 11.7464 38.9158 11.7464C38.8822 11.7464 38.9795 11.7471 38.9466 11.7493C38.9137 11.7478 38.9452 11.7464 38.9123 11.7464C36.8809 11.7464 35.5488 10.0852 35.4956 8.02236H35.4907L35.4921 0.430664H32.2427L32.2455 8.56899C32.3078 12.3869 35.0952 15.0006 38.8472 15.0006C38.8815 15.0006 38.9137 14.9999 38.9466 14.9992C38.9795 14.9992 39.0124 15.0006 39.0467 15.0006C42.8099 15.0006 45.6071 12.3876 45.6694 8.56899L45.6722 0.430664H42.413H42.4123Z" fill="#111214"/>
<path d="M14.5964 6.21126H7.6566V9.25931H11.3533C10.6848 10.7414 9.1511 11.7728 7.4501 11.7728C5.1212 11.7728 3.1591 9.84006 3.1591 7.46446C3.1591 5.08885 5.1198 3.15539 7.4494 3.15539C7.5635 3.15539 7.6769 3.16107 7.7889 3.17032C7.8351 3.17387 7.8806 3.17885 7.9261 3.18382C7.9555 3.18738 8.0752 3.20372 8.106 3.20799C8.1487 3.2151 8.2635 3.23571 8.2782 3.23856C9.0482 3.39565 9.7433 3.76599 10.3005 4.28703L10.3061 4.28419C10.4048 4.3766 10.4993 4.47327 10.5889 4.57421H14.2597C13.2188 2.09554 10.8871 0.296417 8.1508 0.0348308C8.1298 0.0326983 7.7833 0.00781916 7.7637 0.00710833C7.7637 0.0063975 7.5544 0 7.4494 0C3.4146 0 0 3.34873 0 7.46446C0 11.5802 3.416 14.9275 7.4508 14.9275C10.878 14.9275 13.6955 12.6436 14.4851 9.39295C14.6251 8.81717 14.7 8.21581 14.7 7.59596C14.7 7.16946 14.6643 6.61786 14.5964 6.21055V6.21126Z" fill="#111214"/>
</g>
<defs>
<clipPath id="clip0_283_319">
<rect width="84" height="15" fill="white"/>
</clipPath>
</defs>
</svg>
