<svg width="10" height="6" viewBox="0 0 10 6" fill="none" xmlns="http://www.w3.org/2000/svg">
<g clip-path="url(#clip0_27_8)">
<path d="M1.41514 0.566807C1.1759 0.33753 0.796084 0.345611 0.566807 0.584857C0.33753 0.824103 0.345611 1.20392 0.584857 1.43319L1.41514 0.566807ZM5.17391 5L4.75877 5.43319C4.87373 5.54336 5.02777 5.60332 5.18696 5.59986C5.34615 5.5964 5.49744 5.5298 5.6075 5.41473L5.17391 5ZM9.43359 1.41473C9.66264 1.17527 9.6542 0.795466 9.41473 0.566415C9.17527 0.337364 8.79547 0.345804 8.56642 0.585266L9.43359 1.41473ZM0.584857 1.43319L4.75877 5.43319L5.58906 4.56681L1.41514 0.566807L0.584857 1.43319ZM5.6075 5.41473L7.52054 3.41473L6.65337 2.58527L4.74033 4.58527L5.6075 5.41473ZM7.52054 3.41473L9.43359 1.41473L8.56642 0.585266L6.65337 2.58527L7.52054 3.41473Z" fill="#303030"/>
</g>
<defs>
<clipPath id="clip0_27_8">
<rect width="10" height="6" fill="white"/>
</clipPath>
</defs>
</svg>
